PathFileType	4	(X/Y/Z)	/Users/itak/Documents/Research/Walk-IL/dataset/trc/00083_00006.trc
DataRate	CameraRate	NumFrames	NumMarkers	Units	OrigDataRate	OrigDataStartFrame	OrigNumFrames
100.000000	100.000000	4	53	mm	100.000000	380	507
Frame#	Time	RPSI			LPSI			L3			STRN			T10			C7			CLAV			RBAK			LBAK			LSHO			LUPA			LAEL			LAOL			LWTS			LWPS			LFRA			LIFD			LHPS			LHTS			RSHO			RUPA			RAEL			RAOL			RWTS			RWPS			RFRA			RIFD			RHTS			RHPS			RBHD			LFHD			RFHD			LBHD			LHIP			RHIP			RASI			LASI			LKNE			LTHI			LANK			LTIP			LTOE			LMT1			LMT5			LHEE			RKNE			RTHI			RANK			RTIP			RTOE			RMT1			RMT5			RHEE			
		X1	Y1	Z1	X2	Y2	Z2	X3	Y3	Z3	X4	Y4	Z4	X5	Y5	Z5	X6	Y6	Z6	X7	Y7	Z7	X8	Y8	Z8	X9	Y9	Z9	X10	Y10	Z10	X11	Y11	Z11	X12	Y12	Z12	X13	Y13	Z13	X14	Y14	Z14	X15	Y15	Z15	X16	Y16	Z16	X17	Y17	Z17	X18	Y18	Z18	X19	Y19	Z19	X20	Y20	Z20	X21	Y21	Z21	X22	Y22	Z22	X23	Y23	Z23	X24	Y24	Z24	X25	Y25	Z25	X26	Y26	Z26	X27	Y27	Z27	X28	Y28	Z28	X29	Y29	Z29	X30	Y30	Z30	X31	Y31	Z31	X32	Y32	Z32	X33	Y33	Z33	X34	Y34	Z34	X35	Y35	Z35	X36	Y36	Z36	X37	Y37	Z37	X38	Y38	Z38	X39	Y39	Z39	X40	Y40	Z40	X41	Y41	Z41	X42	Y42	Z42	X43	Y43	Z43	X44	Y44	Z44	X45	Y45	Z45	X46	Y46	Z46	X47	Y47	Z47	X48	Y48	Z48	X49	Y49	Z49	X50	Y50	Z50	X51	Y51	Z51	X52	Y52	Z52	X53	Y53	Z53	

381	3.8	417.6839294433594	988.792236328125	-151.2764129638672	246.9067840576172	985.168212890625	-186.3055725097656	320.5599975585938	1048.342407226562	-167.7211303710938	400.5588073730469	1251.734252929688	-400.39794921875	301.4530944824219	1176.928344726562	-152.0032806396484	323.6683349609375	1446.596557617188	-198.5624542236328	391.5730895996094	1365.239135742188	-367.2985229492188	365.0360717773438	1303.719116210938	-119.5645446777344	220.1428833007812	1411.5634765625	-216.0042266845703	192.1896667480469	1422.620971679688	-337.4732971191406	112.4987640380859	1299.400390625	-366.1853942871094	108.0525207519531	1092.94921875	-434.0376281738281	154.6548309326172	1059.136352539062	-342.4321899414062	315.8606262207031	976.2821655273438	-542.6692504882812	253.775634765625	917.3475341796875	-545.3524780273438	162.9162750244141	1013.473327636719	-491.601806640625	437.0390625	845.8885498046875	-598.4983520507812	314.5774841308594	877.5400390625	-591.6851806640625	367.7716369628906	925.1326293945312	-588.8942260742188	507.2989196777344	1406.35107421875	-192.5134735107422	555.828857421875	1337.973388671875	-155.4039611816406	564.8430786132812	1085.063598632812	-89.22685241699219	488.807373046875	1056.95166015625	-148.4270477294922	590.975830078125	816.9625854492188	-203.04541015625	606.3348999023438	812.9963989257812	-116.928108215332	577.7105102539062	1004.186218261719	-87.9871826171875	572.1007080078125	628.900634765625	-188.4417266845703	596.7685546875	713.4654541015625	-210.5058898925781	621.6559448242188	720.1572265625	-137.8375244140625	300.6703491210938	1626.3408203125	-235.5538177490234	458.08837890625	1665.77587890625	-377.9582214355469	334.8020324707031	1671.469116210938	-405.00830078125	435.8806457519531	1612.886474609375	-215.5602416992188	174.7047576904297	927.17578125	-309.2820739746094	509.59130859375	922.2404174804688	-205.0737152099609	515.9971313476562	946.6904907226562	-329.1020202636719	257.1405944824219	937.165283203125	-402.7527770996094	300.8978576660156	460.5649108886719	-314.2791748046875	238.5962524414062	600.2318115234375	-319.7205200195312	203.4805145263672	50.61554718017578	-105.3201370239258	244.5610198974609	236.7562561035156	-208.6128234863281	349.416259765625	37.68661880493164	-249.6360015869141	352.7999267578125	37.26096725463867	-177.2505645751953	244.7948760986328	37.70165634155273	-206.2357025146484	224.3108520507812	60.92843246459961	-14.82158279418945	573.2982177734375	521.9492797851562	-416.6699829101562	559.7605590820312	773.762939453125	-324.3702697753906	646.0225219726562	46.29299163818359	-524.5112915039062	598.847412109375	405.4684753417969	-442.64404296875	623.4102172851562	143.907470703125	-710.1614379882812	580.5020141601562	113.8177947998047	-665.2980346679688	671.9048461914062	102.7302017211914	-629.4528198242188	584.4305419921875	26.43959426879883	-490.5843505859375	
382	3.81	423.9503784179688	987.6095581054688	-158.6792144775391	252.7454681396484	984.393798828125	-192.5241088867188	326.5372924804688	1047.0283203125	-174.4441528320312	405.0558471679688	1250.703369140625	-407.4256896972656	307.4674377441406	1175.593383789062	-158.5633544921875	329.3532104492188	1445.340454101562	-204.8231658935547	396.2205810546875	1364.151733398438	-374.112548828125	371.1011962890625	1302.367309570312	-126.3846969604492	225.5691986083984	1410.211059570312	-221.8467864990234	196.9467468261719	1421.37548828125	-343.1197814941406	117.2567520141602	1298.09033203125	-371.6345825195312	112.830696105957	1091.864013671875	-440.2499084472656	159.687744140625	1057.8349609375	-348.9101867675781	320.0336608886719	974.9108276367188	-549.8674926757812	257.8109130859375	916.1133422851562	-552.3742065429688	167.3653106689453	1012.375854492188	-498.1878967285156	440.7279663085938	844.3223266601562	-606.3987426757812	318.3565673828125	876.2863159179688	-599.0462036132812	371.6923522949219	923.7178955078125	-596.37060546875	512.8875732421875	1405.25927734375	-199.9306182861328	561.6967163085938	1336.917724609375	-163.1271362304688	571.1331787109375	1084.067260742188	-96.96335601806641	494.8164978027344	1055.875610351562	-155.7695007324219	596.8142700195312	815.7135009765625	-210.1782989501953	612.651611328125	812.0651245117188	-124.1208267211914	584.0737915039062	1003.286743164062	-95.6422119140625	578.1292114257812	627.709716796875	-194.6937713623047	602.5866088867188	712.2230834960938	-217.252197265625	627.930908203125	719.1856689453125	-144.7658538818359	305.6351928710938	1625.229736328125	-241.8832855224609	462.5357055664062	1664.7802734375	-384.8310241699219	339.1528015136719	1670.424926757812	-411.4607238769531	440.9332885742188	1611.846801757812	-222.3570709228516	179.2415924072266	926.620361328125	-314.7500915527344	515.1177368164062	920.8480834960938	-213.2418060302734	520.7011108398438	945.3305053710938	-337.3046264648438	261.128173828125	936.1893920898438	-408.921142578125	303.0650329589844	459.4651184082031	-318.2572631835938	241.6725311279297	599.49169921875	-323.939208984375	204.2879333496094	51.57810974121094	-105.2262496948242	245.6315307617188	236.8511657714844	-210.3953094482422	349.23681640625	37.62518310546875	-249.8036193847656	352.876220703125	37.31302261352539	-177.4540863037109	244.8524475097656	37.88114547729492	-206.2344818115234	225.0598297119141	62.84364700317383	-14.93364906311035	576.4822998046875	520.8848876953125	-425.8357849121094	563.9171752929688	772.5879516601562	-333.1783752441406	646.8065185546875	44.56045532226562	-531.3931274414062	601.4005737304688	403.9257507324219	-451.7473449707031	624.4603271484375	140.2434692382812	-717.9434204101562	581.4740600585938	110.5930786132812	-672.9561767578125	672.7344360351562	99.98268127441406	-636.6636352539062	585.104248046875	25.11201858520508	-497.3222351074219	
383	3.82	430.2301025390625	986.503173828125	-166.1950378417969	258.6419982910156	983.6788940429688	-198.8591918945312	332.5288391113281	1045.8037109375	-181.2833557128906	409.6508178710938	1249.802368164062	-414.5348205566406	313.5353393554688	1174.354248046875	-165.244873046875	335.0884399414062	1444.186279296875	-211.1598052978516	400.9373168945312	1363.177490234375	-380.9889526367188	377.216796875	1301.115600585938	-133.2881622314453	231.0587768554688	1408.9609375	-227.7894134521484	201.8035888671875	1420.233154296875	-348.8730773925781	122.087776184082	1296.890014648438	-377.17431640625	117.5994338989258	1090.85400390625	-446.41650390625	164.7419586181641	1056.662353515625	-355.3563842773438	324.0088806152344	973.2881469726562	-557.0449829101562	261.5945129394531	914.669921875	-559.25244140625	171.7017364501953	1011.239868164062	-504.6870727539062	444.0795593261719	842.3616943359375	-614.2323608398438	321.8046875	874.7132568359375	-606.259521484375	375.3345642089844	921.9490356445312	-603.810791015625	518.5372314453125	1404.27294921875	-207.4092864990234	567.6160278320312	1335.961059570312	-170.9214630126953	577.48828125	1083.148193359375	-104.8506164550781	500.8973693847656	1054.879638671875	-163.2822723388672	602.7733764648438	814.571533203125	-217.5067749023438	619.073974609375	811.228759765625	-131.5128326416016	590.51123046875	1002.472106933594	-103.463005065918	584.3114624023438	626.6259765625	-201.1580657958984	608.528076171875	711.1137084960938	-224.1996459960938	634.3363037109375	718.3202514648438	-151.8963623046875	310.6328125	1624.1982421875	-248.2352447509766	466.9845581054688	1663.914794921875	-391.7228088378906	343.5083618164062	1669.4912109375	-417.9306945800781	446.0182189941406	1610.914184570312	-229.1874694824219	183.9282379150391	926.1262817382812	-320.357666015625	520.6829223632812	919.5779418945312	-221.4882049560547	525.4830932617188	944.1380615234375	-345.5768127441406	265.2608032226562	935.3190307617188	-415.2231750488281	305.3168640136719	458.4367980957031	-322.3689270019531	244.7851104736328	598.848388671875	-328.3386840820312	205.1089935302734	52.67762756347656	-105.1978378295898	246.6767883300781	237.0777435302734	-212.3033294677734	349.0657653808594	37.56401443481445	-249.9691772460938	352.9272766113281	37.3909797668457	-177.7027282714844	244.8631134033203	38.0578727722168	-206.2767486572266	225.794677734375	64.96614074707031	-15.13501930236816	579.507080078125	519.8385009765625	-435.1574096679688	568.0834350585938	771.5514526367188	-342.1876831054688	647.3058471679688	42.67524719238281	-536.8180541992188	603.740966796875	402.3038635253906	-460.7131652832031	625.0750122070312	135.3816223144531	-724.7138061523438	582.0236206054688	106.3663330078125	-679.463623046875	673.1598510742188	96.47853851318359	-642.7077026367188	585.5332641601562	23.87815093994141	-502.4620971679688	
384	3.83	436.5156555175781	985.4974365234375	-173.8456115722656	264.6045532226562	983.0258178710938	-205.314453125	338.5530395507812	1044.677001953125	-188.2543182373047	414.3363037109375	1249.045776367188	-421.728759765625	319.65771484375	1173.223266601562	-172.0458526611328	340.8584289550781	1443.151489257812	-217.5775146484375	405.7210693359375	1362.330078125	-387.9324035644531	383.3922119140625	1299.977905273438	-140.2707366943359	236.61279296875	1407.825561523438	-233.8255157470703	206.7528533935547	1419.205688476562	-354.7299194335938	126.9878540039062	1295.808715820312	-382.8019104003906	122.3629455566406	1089.925170898438	-452.5277099609375	169.8128509521484	1055.626220703125	-361.760498046875	327.790771484375	971.4302368164062	-564.18701171875	265.1257934570312	913.0374145507812	-565.9801635742188	175.92724609375	1010.076171875	-511.087158203125	447.0780334472656	840.0051879882812	-621.9759521484375	324.9154357910156	872.828857421875	-613.3090209960938	378.6908874511719	919.8344116210938	-611.1937255859375	524.2493896484375	1403.403198242188	-214.955810546875	573.5855712890625	1335.112548828125	-178.7952117919922	583.906982421875	1082.322021484375	-112.8814086914062	507.0522766113281	1053.98193359375	-170.9579925537109	608.8424682617188	813.553955078125	-225.0345153808594	625.5929565429688	810.4978637695312	-139.1067199707031	597.0194702148438	1001.753234863281	-111.4441070556641	590.639404296875	625.6569213867188	-207.8562927246094	614.5848388671875	710.1542358398438	-231.3599395751953	640.8653564453125	717.572265625	-159.2423553466797	315.6653747558594	1623.260498046875	-254.6119842529297	471.4344482421875	1663.199584960938	-398.6389465332031	347.8655395507812	1668.683715820312	-424.4186401367188	451.1322937011719	1610.100830078125	-236.0547790527344	188.8007049560547	925.6725463867188	-326.1158142089844	526.3065795898438	918.4501342773438	-229.8321990966797	530.340087890625	943.1265258789062	-353.9387817382812	269.5359802246094	934.5564575195312	-421.672607421875	307.6678466796875	457.4645080566406	-326.6716918945312	247.9550933837891	598.2920532226562	-332.9572143554688	205.8895111083984	53.95028686523438	-105.2666473388672	247.6995544433594	237.4442901611328	-214.3735656738281	348.9095458984375	37.50254821777344	-250.1336822509766	352.9529418945312	37.5062141418457	-178.0038757324219	244.8243103027344	38.22883987426758	-206.3752136230469	226.5178375244141	67.33123016357422	-15.43857288360596	582.3448486328125	518.8134765625	-444.531982421875	572.2653198242188	770.62841796875	-351.3761291503906	647.6192016601562	40.8043098449707	-541.074951171875	605.8766479492188	400.6486206054688	-469.5226440429688	625.2122192382812	129.4668426513672	-730.7072143554688	582.1524047851562	101.2905197143555	-685.037841796875	673.1993408203125	92.37612152099609	-647.861328125	585.8342895507812	22.91075325012207	-506.2655639648438	
